# xmcd
#
# Track frame offsets:
#	150
#	20047
#	39335
#	52472
#	63475
#	76135
#	95747
#	109647
#	122635
#	130735
#	146197
#	164385
#	178510
#	192960
#	208522
#	225197
#	243222
#	253347
#	263460
#	276697
# Disc length: 3866 seconds
# Revision: 6
# Processed by: cddbd v1.5.2PL0 Copyright (c) Steve Scherf et al.
#
# Submitted via: libkcddb 0.31
#
DISCID=230f1814
DTITLE=Marty Robbins - Number One Cowboy
DYEAR=1900
DGENRE=Unknown
TTITLE0=El Paso
TTITLE1=El Paso City
TTITLE2=The Hanging Tree
TTITLE3=Red River Valley
TTITLE4=Streets of Laredo
TTITLE5=San Angelo
TTITLE6=All Around Cowboy
TTITLE7=Tumbling Tumbleweeds
TTITLE8=The Fastest Gun Around
TTITLE9=Meet Me Tonight In Laredo
TTITLE10=Mr. Shorty
TTITLE11=They're Hanging Me Tonight
TTITLE12=Cool Water
TTITLE13=Strawberry Roan
TTITLE14=Ballad of the Alamo
TTITLE15=Big Iron
TTITLE16=Running Gun
TTITLE17=Five Brothers
TTITLE18=The Cowboy in the Continental Suit
TTITLE19=Old Red
EXTD=
EXTT0=
EXTT1=
EXTT2=
EXTT3=
EXTT4=
EXTT5=
EXTT6=
EXTT7=
EXTT8=
EXTT9=
EXTT10=
EXTT11=
EXTT12=
EXTT13=
EXTT14=
EXTT15=
EXTT16=
EXTT17=
EXTT18=
EXTT19=
PLAYORDER=
